<svg width="269" height="33" viewBox="0 0 269 33" fill="none" xmlns="http://www.w3.org/2000/svg">
<g clip-path="url(#clip0_995_1933)">
<mask id="mask0_995_1933" style="mask-type:luminance" maskUnits="userSpaceOnUse" x="0" y="0" width="269" height="33">
<path d="M268.9 0H0V32.3H268.9V0Z" fill="white"/>
</mask>
<g mask="url(#mask0_995_1933)">
<path d="M34.1 6.9999H11.3C8.5 6.9999 6.9 8.3999 6.5 11.2999H34.3V16.5999C34.3 24.3999 30.1 28.3999 21.6 28.3999H0V21.7999H23C24.4 21.7999 25.5 21.3999 26.2 20.6999C27 19.9999 27.5 18.8999 27.7 17.5999H0V12.2999C0 4.2999 4.2 0.399902 12.7 0.399902H34.1V6.9999Z" fill="#401E54"/>
<path d="M66.6999 7H54.4C50.2 7 47.5 7.5 46.4 8.3C45.3 9.2 44.6 10.2 44.4 11.4H66.6999V7ZM73.5 28.3H66.6999V17.7H44V28.4H37.2V14.4C37.2 12.2 37.4999 10.3 38.0999 8.6C38.6999 6.9 39.5999 5.4 40.7999 4.2C41.9999 3 43.5 2.1 45.2 1.5C46.9 0.9 48.8999 0.5 51.0999 0.5H73.5V28.3Z" fill="#401E54"/>
<path d="M114.2 28.2999H107C103.2 22.9999 99.4 18.6999 95.7 15.3999C92 12.0999 88.3 9.6999 84.7 8.2999C84.4 8.1999 84.1 8.0999 83.8 7.9999C83.5 7.8999 83.2 7.7999 82.8 7.6999C82.9 8.6999 82.9 9.3999 82.9 9.6999V28.3999H76.3V0.399902H82.2C84.4 1.0999 86.6 1.9999 88.8 3.1999C90.9 4.3999 93 5.6999 95.1 7.0999C97.1 8.5999 99.1 10.0999 101 11.8999C102.9 13.5999 104.7 15.3999 106.4 17.2999L107.6 18.5999C107.5 17.7999 107.5 17.1999 107.5 16.7999V0.399902H114.2V28.2999Z" fill="#401E54"/>
<path d="M217.3 6.99995H201.1C199.7 6.99995 198.5 7.09995 197.6 7.39995C196.7 7.59995 195.9 8.09995 195.4 8.59995C194.9 9.09995 194.4 9.89995 194.2 10.9C194 11.9 193.8 13.1 193.8 14.5V21.7999H210C211.4 21.7999 212.5 21.7 213.5 21.5C214.4 21.2999 215.2 20.9 215.7 20.2999C216.3 19.6999 216.7 19 216.9 18C217.1 17 217.3 15.8 217.3 14.4V6.99995ZM224.2 0.399951V14.4C224.2 16.6 223.9 18.5 223.3 20.2C222.7 21.9 221.8 23.4 220.6 24.6C219.4 25.8 217.9 26.6999 216.2 27.2999C214.5 27.9 212.5 28.2 210.3 28.2H187.2V14.2C187.2 12.1 187.5 10.2 188.1 8.39995C188.7 6.69995 189.6 5.19995 190.9 3.99995C192.1 2.79995 193.6 1.89995 195.3 1.19995C197 0.499951 199 0.199951 201.2 0.199951L224.2 0.399951Z" fill="#401E54"/>
<path d="M268.9 28.2999H259.4L248.4 17.9999L236.8 28.2999H227.5L241.3 16.2999L243.8 14.4999L241.2 12.5999L227.4 0.399902H237L248 10.5999L259.3 0.399902H268.9L255.2 12.2999L252.6 14.1999L255.4 16.3999L268.9 28.2999Z" fill="#401E54"/>
<path d="M188.4 0.399927H178L168.6 16.0999C168.5 16.2999 168.4 16.4999 168.2 16.6999C168.1 16.4999 168 16.2999 167.8 15.9999L158.4 0.299927H152.2H143.4V19.9999H134.4C131.3 19.9999 129.2 19.3999 127.9 18.4999C126.7 17.4999 126 16.2999 126 14.1999V0.399927H117.2V13.7999C117.2 16.0999 117.6 18.1999 118.3 20.0999C119 21.8999 120.1 23.4999 121.5 24.7999C122.9 26.0999 124.5 26.9999 126.5 27.6999C128.4 28.2999 130.5 28.6999 132.7 28.6999H152.2V6.89993L168.2 31.8999L188.4 0.399927Z" fill="#7E469B"/>
</g>
</g>
<defs>
<clipPath id="clip0_995_1933">
<rect width="268.9" height="32.3" fill="white"/>
</clipPath>
</defs>
</svg>